<svg width="200" height="169" viewBox="0 0 200 169" fill="none" xmlns="http://www.w3.org/2000/svg">
<path d="M58.3333 114.679C62.9514 114.679 66.6667 118.715 66.6667 123.732C66.6667 128.749 62.9514 132.786 58.3333 132.786H41.6667C37.0486 132.786 33.3333 128.749 33.3333 123.732C33.3333 118.715 37.0486 114.679 41.6667 114.679H58.3333ZM125 114.679C129.618 114.679 133.333 118.715 133.333 123.732C133.333 128.749 129.618 132.786 125 132.786H86.1111C81.493 132.786 77.7778 128.749 77.7778 123.732C77.7778 118.715 81.493 114.679 86.1111 114.679H125ZM177.778 0C190.035 0 200 10.8077 200 24.1429V144.857C200 158.173 190.035 169 177.778 169H22.2222C9.94792 169 0 158.173 0 144.857V24.1429C0 10.8077 9.94792 0 22.2222 0H177.778ZM177.778 18.1071H22.2222C19.1528 18.1071 16.6667 20.8081 16.6667 24.1429V36.2143H183.333V24.1429C183.333 20.8081 180.833 18.1071 177.778 18.1071ZM183.333 72.4286H16.6667V144.857C16.6667 148.177 19.1528 150.893 22.2222 150.893H177.778C180.833 150.893 183.333 148.177 183.333 144.857V72.4286Z" fill="#373232" fill-opacity="0.8"/>
</svg>
