<svg width="102" height="94" viewBox="0 0 102 94" fill="none" xmlns="http://www.w3.org/2000/svg">
<path d="M65.755 82.64C70.0199 83.8783 74.439 84.5045 78.88 84.5C86.022 84.5103 93.0712 82.8819 99.485 79.74C99.6746 75.2585 98.3981 70.8374 95.8489 67.1466C93.2997 63.4559 89.6169 60.6968 85.3585 59.2875C81.1001 57.8782 76.4984 57.8956 72.2508 59.337C68.0032 60.7783 64.3413 63.5651 61.82 67.275M65.755 82.64V82.625C65.755 77.06 64.33 71.825 61.825 67.275M65.755 82.64V83.17C56.1324 88.9655 45.1081 92.019 33.875 92C22.22 92 11.315 88.775 2.005 83.17L2 82.625C1.99617 75.5473 4.34807 68.6697 8.68492 63.0763C13.0218 57.483 19.0969 53.4922 25.9524 51.733C32.808 49.9738 40.0541 50.5464 46.5483 53.3605C53.0425 56.1745 58.4154 61.07 61.82 67.275M50.755 18.875C50.755 23.3505 48.9771 27.6428 45.8124 30.8074C42.6478 33.9721 38.3555 35.75 33.88 35.75C29.4045 35.75 25.1123 33.9721 21.9476 30.8074C18.7829 27.6428 17.005 23.3505 17.005 18.875C17.005 14.3995 18.7829 10.1072 21.9476 6.94257C25.1123 3.7779 29.4045 2 33.88 2C38.3555 2 42.6478 3.7779 45.8124 6.94257C48.9771 10.1072 50.755 14.3995 50.755 18.875V18.875ZM92.005 30.125C92.005 33.606 90.6222 36.9444 88.1608 39.4058C85.6994 41.8672 82.361 43.25 78.88 43.25C75.399 43.25 72.0606 41.8672 69.5992 39.4058C67.1378 36.9444 65.755 33.606 65.755 30.125C65.755 26.644 67.1378 23.3056 69.5992 20.8442C72.0606 18.3828 75.399 17 78.88 17C82.361 17 85.6994 18.3828 88.1608 20.8442C90.6222 23.3056 92.005 26.644 92.005 30.125V30.125Z" stroke="white" stroke-width="4" stroke-linecap="round" stroke-linejoin="round"/>
</svg>
