<svg width="230" height="187" viewBox="0 0 230 187" fill="none" xmlns="http://www.w3.org/2000/svg">
<path d="M126.5 46.75C126.5 72.5721 105.908 93.5 80.5 93.5C55.0922 93.5 34.5 72.5721 34.5 46.75C34.5 20.9279 55.0922 0 80.5 0C105.908 0 126.5 20.9279 126.5 46.75ZM0 176.153C0 140.177 28.6781 111.031 64.0766 111.031H96.9234C132.322 111.031 161 140.177 161 176.153C161 182.142 156.22 187 150.327 187H10.6734C4.77969 187 0 182.142 0 176.153ZM181.125 113.953V90.5781H158.125C153.345 90.5781 149.5 86.6701 149.5 81.8125C149.5 76.9549 153.345 73.0469 158.125 73.0469H181.125V49.6719C181.125 44.8143 184.97 40.9062 189.75 40.9062C194.53 40.9062 198.375 44.8143 198.375 49.6719V73.0469H221.375C226.155 73.0469 230 76.9549 230 81.8125C230 86.6701 226.155 90.5781 221.375 90.5781H198.375V113.953C198.375 118.811 194.53 122.719 189.75 122.719C184.97 122.719 181.125 118.811 181.125 113.953Z" fill="#373232" fill-opacity="0.8"/>
</svg>
